<svg version="1.1" id="Layer_1" xmlns="http://www.w3.org/2000/svg" xmlns:xlink="http://www.w3.org/1999/xlink" x="0px" y="0px"
	 width="100%" viewBox="0 0 800 597" enable-background="new 0 0 800 597" xml:space="preserve">
<path fill="#FEFEFE" opacity="1.000000" stroke="none" 
	d="
M471.000000,598.000000 
	C314.000000,598.000000 157.500000,598.000000 1.000000,598.000000 
	C1.000000,399.000000 1.000000,200.000000 1.000000,1.000000 
	C267.666656,1.000000 534.333313,1.000000 801.000000,1.000000 
	C801.000000,200.000000 801.000000,399.000000 801.000000,598.000000 
	C691.166687,598.000000 581.333313,598.000000 471.000000,598.000000 
M690.054382,352.499969 
	C689.994751,308.626801 678.041626,267.359772 663.479736,227.211227 
	C652.955933,240.076797 643.318054,253.299454 632.217834,265.152649 
	C601.991638,297.429260 564.359253,317.128815 521.690369,327.555328 
	C517.810364,328.503448 516.725342,329.879730 516.890930,333.797729 
	C517.157288,340.102509 517.117249,346.505310 516.321838,352.754059 
	C513.849243,372.179199 510.960480,391.551422 508.130341,411.675323 
	C518.272156,413.839142 529.261230,416.333313 540.312561,418.512238 
	C567.968933,423.965027 595.741821,428.257690 624.095947,425.976898 
	C638.354980,424.829865 652.162842,421.945862 664.436279,414.233032 
	C676.050354,406.934631 685.407776,397.392944 687.736450,383.334259 
	C689.360413,373.529907 689.340149,363.453186 690.054382,352.499969 
M593.004089,116.492821 
	C577.141785,101.737289 559.676453,89.226036 540.196411,78.087074 
	C535.720642,136.116730 515.681580,187.250320 480.962982,231.121048 
	C491.405182,252.786926 501.413849,273.553253 511.905426,295.321503 
	C524.504822,291.298279 537.842468,287.697296 550.693726,282.815613 
	C593.986511,266.370514 626.333313,237.660660 646.247498,195.535950 
	C647.010437,193.921997 646.970154,191.332153 646.222595,189.689148 
	C633.580566,161.901474 615.836243,137.772095 593.004089,116.492821 
M259.775116,505.733124 
	C271.831940,511.033142 284.021729,515.945251 297.523590,519.396667 
	C278.634552,470.189697 273.640350,420.691833 283.663513,369.815094 
	C283.958557,368.317352 283.168671,366.278534 282.250916,364.920135 
	C273.680267,352.234314 265.056915,339.580994 256.187347,327.104187 
	C255.137024,325.626709 252.474030,324.418243 250.634842,324.516296 
	C234.441055,325.379150 221.006912,332.858490 208.985779,343.059113 
	C186.671005,361.994415 171.020752,386.182434 156.355835,411.067657 
	C155.690475,412.196686 156.161407,414.619141 156.964233,415.898987 
	C182.065872,455.916382 215.968964,485.927521 259.775116,505.733124 
M182.321686,242.048386 
	C163.001801,241.214294 144.144058,244.263138 125.546501,249.108582 
	C123.750969,249.576401 121.565544,251.625916 121.045105,253.381195 
	C118.686783,261.335205 116.326279,269.356384 114.941582,277.518799 
	C110.296700,304.898926 114.004570,331.591980 122.716995,357.710144 
	C125.361031,365.636444 128.517822,373.391724 131.696899,381.914703 
	C165.557236,345.764648 202.172852,315.254181 247.376678,295.724152 
	C245.418427,284.264587 243.592056,272.953003 241.429550,261.706055 
	C241.157303,260.290070 239.312683,258.877502 237.864532,258.032135 
	C221.003296,248.189499 202.608063,243.504929 182.321686,242.048386 
M440.491425,196.906281 
	C448.596375,203.070847 456.701355,209.235413 465.812683,216.165436 
	C472.537140,200.650986 480.147766,184.940979 486.237274,168.661957 
	C499.362518,133.574280 502.385254,97.468056 494.938843,60.603016 
	C494.226868,57.078098 492.942627,54.562733 489.248749,53.355057 
	C473.795990,48.302910 458.571777,42.452881 442.921661,38.135517 
	C431.155090,34.889507 418.867310,33.532967 405.704315,31.133459 
	C428.891052,83.516144 434.316803,136.597656 422.993774,191.001892 
	C428.858368,192.950394 434.333038,194.769333 440.491425,196.906281 
M426.992218,468.797058 
	C426.213501,468.171295 425.438141,467.541290 424.655548,466.920380 
	C405.782043,451.945496 387.940674,435.921356 376.049805,414.571442 
	C371.581421,406.548492 368.475677,397.766663 365.116852,390.164032 
	C347.204926,389.418793 329.312469,388.674347 310.999481,387.912384 
	C310.724365,389.635468 310.272583,391.886017 310.015869,394.158569 
	C305.418213,434.857941 315.254089,472.066071 337.193939,506.340973 
	C343.527618,516.235596 343.488129,516.114136 355.093048,513.300659 
	C383.885345,506.320129 406.967377,489.252106 430.014252,471.468323 
	C429.044891,470.568787 428.329681,469.905121 426.992218,468.797058 
M372.931213,36.444309 
	C371.488739,32.425209 368.858124,31.137878 364.522186,31.811012 
	C352.706360,33.645363 340.753082,34.665878 328.997681,36.799126 
	C314.784790,39.378315 301.183594,44.127998 287.685425,50.394875 
	C315.541931,85.087189 336.898895,122.696983 348.544617,165.880554 
	C366.768982,162.342621 383.362213,167.450897 399.689301,175.611496 
	C401.423157,126.749420 396.011566,80.284225 372.931213,36.444309 
M476.272156,418.752228 
	C478.194305,414.707977 480.433594,410.781433 481.985321,406.599731 
	C489.885345,385.310516 490.584015,363.011078 490.777863,340.681702 
	C490.825989,335.139618 490.289398,329.592499 489.991821,323.431763 
	C467.371887,333.345001 444.578064,339.735229 420.903229,342.985901 
	C419.604797,343.164185 418.250397,344.269287 417.278381,345.284241 
	C407.611603,355.377502 397.937622,365.467468 388.505615,375.777832 
	C387.251923,377.148315 386.633270,379.845551 386.915680,381.751221 
	C388.446075,392.077423 394.077118,400.244080 401.480377,407.251831 
	C416.562042,421.527771 435.170502,429.541595 454.305054,436.518127 
	C455.594574,436.988251 457.559723,436.466095 458.900940,435.790558 
	C466.239990,432.093964 471.669647,426.337402 476.272156,418.752228 
M194.060730,219.314392 
	C211.543686,223.804459 229.026642,228.294525 246.258347,232.720062 
	C252.488983,220.895905 258.980286,208.577026 265.636383,195.945450 
	C265.590393,195.890823 265.216309,195.342728 264.743530,194.899994 
	C238.301865,170.138077 206.986206,154.223221 172.406586,144.379761 
	C170.859528,143.939362 168.012054,145.359055 166.823624,146.788254 
	C155.584534,160.304092 146.710510,175.332642 139.537506,191.340988 
	C136.131927,198.941360 133.245789,206.774475 129.875839,215.117325 
	C151.945587,214.026917 172.667786,215.311707 194.060730,219.314392 
M257.657776,67.557709 
	C256.012451,67.867241 254.092255,67.734947 252.767136,68.559265 
	C245.144897,73.300751 237.469864,77.998299 230.177826,83.220543 
	C217.838699,92.057297 206.300293,101.821220 197.290497,114.740219 
	C201.063995,116.568016 204.637192,118.272972 208.188217,120.022919 
	C236.906525,134.175369 263.505035,151.254608 284.890686,175.543228 
	C290.425049,181.828842 290.478455,181.869339 298.562866,178.959579 
	C306.299683,176.174927 313.979645,173.232330 321.766327,170.328690 
	C308.746582,130.677490 288.763733,96.074364 257.657776,67.557709 
M419.932465,302.616791 
	C420.959625,306.764404 421.986786,310.912018 422.987885,314.954468 
	C443.832367,315.384094 465.228210,304.382507 478.606720,290.927551 
	C479.457001,290.072418 479.670288,287.884857 479.275604,286.593567 
	C470.448944,257.714661 454.218262,234.228653 428.149170,218.363876 
	C420.196381,213.524048 411.490692,209.921341 402.281006,205.328796 
	C402.539093,221.766190 402.596069,236.565536 397.456390,250.786148 
	C397.169495,251.579926 397.886566,252.991959 398.519714,253.824844 
	C409.405151,268.145050 415.267792,284.673462 419.932465,302.616791 
M377.804810,349.343964 
	C391.559753,338.209991 398.471161,324.140106 394.960571,306.335999 
	C393.232300,297.570892 390.590027,288.901093 387.468048,280.520966 
	C384.655701,272.972015 378.577393,268.732544 370.356140,267.833588 
	C360.830719,266.792023 351.886627,269.180084 342.965973,272.059357 
	C330.483063,276.088440 328.046265,282.881378 335.358551,293.773010 
	C336.099854,294.877197 336.955719,295.905029 337.686127,297.015839 
	C339.658325,300.015259 342.189728,301.134216 345.977325,301.233032 
	C351.917480,301.388000 357.921478,302.223541 363.724304,303.539032 
	C368.503479,304.622437 369.176758,307.754669 365.598297,311.087006 
	C362.948975,313.554108 359.942932,315.808380 356.741638,317.478638 
	C348.962341,321.537598 340.976685,325.200989 332.576599,329.264374 
	C336.964844,340.623901 341.412415,352.136993 345.915771,363.794525 
	C357.648834,360.879395 367.988800,356.562256 377.804810,349.343964 
M339.181183,243.870575 
	C348.980011,243.295471 358.776001,242.373993 368.578857,242.294388 
	C373.335388,242.255768 375.873138,240.204117 377.988708,236.497971 
	C384.949036,224.304337 384.493835,211.343918 381.931244,198.211487 
	C381.738007,197.221375 380.072418,196.043518 378.908020,195.788055 
	C355.468140,190.645508 332.629242,191.664673 310.992737,203.106186 
	C299.758636,209.046829 290.246399,217.118118 281.754578,227.409409 
	C288.556305,227.982559 294.644806,228.301895 300.681396,229.043427 
	C314.481262,230.738586 328.065002,233.125412 339.181183,243.870575 
M273.991241,295.460663 
	C280.774719,322.330414 298.021027,341.499908 319.880005,358.392853 
	C318.991974,351.847931 318.153198,346.258362 317.486145,340.648346 
	C314.491302,315.460876 312.286041,290.297028 318.958557,265.266846 
	C319.377991,263.693512 318.448730,261.056976 317.223816,259.858887 
	C306.193665,249.070496 292.841248,246.205093 278.063171,249.332489 
	C276.603485,249.641373 274.740173,251.593445 274.399719,253.087219 
	C271.258362,266.870270 270.533386,280.742279 273.991241,295.460663 
z"/>
<path fill="#010101" opacity="1.000000" stroke="none" 
	d="
M690.054382,352.999054 
	C689.340149,363.453186 689.360413,373.529907 687.736450,383.334259 
	C685.407776,397.392944 676.050354,406.934631 664.436279,414.233032 
	C652.162842,421.945862 638.354980,424.829865 624.095947,425.976898 
	C595.741821,428.257690 567.968933,423.965027 540.312561,418.512238 
	C529.261230,416.333313 518.272156,413.839142 508.130341,411.675323 
	C510.960480,391.551422 513.849243,372.179199 516.321838,352.754059 
	C517.117249,346.505310 517.157288,340.102509 516.890930,333.797729 
	C516.725342,329.879730 517.810364,328.503448 521.690369,327.555328 
	C564.359253,317.128815 601.991638,297.429260 632.217834,265.152649 
	C643.318054,253.299454 652.955933,240.076797 663.479736,227.211227 
	C678.041626,267.359772 689.994751,308.626801 690.054382,352.999054 
z"/>
<path fill="#010201" opacity="1.000000" stroke="none" 
	d="
M593.271484,116.725983 
	C615.836243,137.772095 633.580566,161.901474 646.222595,189.689148 
	C646.970154,191.332153 647.010437,193.921997 646.247498,195.535950 
	C626.333313,237.660660 593.986511,266.370514 550.693726,282.815613 
	C537.842468,287.697296 524.504822,291.298279 511.905426,295.321503 
	C501.413849,273.553253 491.405182,252.786926 480.962982,231.121048 
	C515.681580,187.250320 535.720642,136.116730 540.196411,78.087074 
	C559.676453,89.226036 577.141785,101.737289 593.271484,116.725983 
z"/>
<path fill="#020202" opacity="1.000000" stroke="none" 
	d="
M259.443970,505.549774 
	C215.968964,485.927521 182.065872,455.916382 156.964233,415.898987 
	C156.161407,414.619141 155.690475,412.196686 156.355835,411.067657 
	C171.020752,386.182434 186.671005,361.994415 208.985779,343.059113 
	C221.006912,332.858490 234.441055,325.379150 250.634842,324.516296 
	C252.474030,324.418243 255.137024,325.626709 256.187347,327.104187 
	C265.056915,339.580994 273.680267,352.234314 282.250916,364.920135 
	C283.168671,366.278534 283.958557,368.317352 283.663513,369.815094 
	C273.640350,420.691833 278.634552,470.189697 297.523590,519.396667 
	C284.021729,515.945251 271.831940,511.033142 259.443970,505.549774 
z"/>
<path fill="#020202" opacity="1.000000" stroke="none" 
	d="
M182.797592,242.061783 
	C202.608063,243.504929 221.003296,248.189499 237.864532,258.032135 
	C239.312683,258.877502 241.157303,260.290070 241.429550,261.706055 
	C243.592056,272.953003 245.418427,284.264587 247.376678,295.724152 
	C202.172852,315.254181 165.557236,345.764648 131.696899,381.914703 
	C128.517822,373.391724 125.361031,365.636444 122.716995,357.710144 
	C114.004570,331.591980 110.296700,304.898926 114.941582,277.518799 
	C116.326279,269.356384 118.686783,261.335205 121.045105,253.381195 
	C121.565544,251.625916 123.750969,249.576401 125.546501,249.108582 
	C144.144058,244.263138 163.001801,241.214294 182.797592,242.061783 
z"/>
<path fill="#020202" opacity="1.000000" stroke="none" 
	d="
M440.149536,196.747284 
	C434.333038,194.769333 428.858368,192.950394 422.993774,191.001892 
	C434.316803,136.597656 428.891052,83.516144 405.704315,31.133459 
	C418.867310,33.532967 431.155090,34.889507 442.921661,38.135517 
	C458.571777,42.452881 473.795990,48.302910 489.248749,53.355057 
	C492.942627,54.562733 494.226868,57.078098 494.938843,60.603016 
	C502.385254,97.468056 499.362518,133.574280 486.237274,168.661957 
	C480.147766,184.940979 472.537140,200.650986 465.812683,216.165436 
	C456.701355,209.235413 448.596375,203.070847 440.149536,196.747284 
z"/>
<path fill="#020202" opacity="1.000000" stroke="none" 
	d="
M427.303345,469.019257 
	C428.329681,469.905121 429.044891,470.568787 430.014252,471.468323 
	C406.967377,489.252106 383.885345,506.320129 355.093048,513.300659 
	C343.488129,516.114136 343.527618,516.235596 337.193939,506.340973 
	C315.254089,472.066071 305.418213,434.857941 310.015869,394.158569 
	C310.272583,391.886017 310.724365,389.635468 310.999481,387.912384 
	C329.312469,388.674347 347.204926,389.418793 365.116852,390.164032 
	C368.475677,397.766663 371.581421,406.548492 376.049805,414.571442 
	C387.940674,435.921356 405.782043,451.945496 424.655548,466.920380 
	C425.438141,467.541290 426.213501,468.171295 427.303345,469.019257 
z"/>
<path fill="#020202" opacity="1.000000" stroke="none" 
	d="
M373.095459,36.791977 
	C396.011566,80.284225 401.423157,126.749420 399.689301,175.611496 
	C383.362213,167.450897 366.768982,162.342621 348.544617,165.880554 
	C336.898895,122.696983 315.541931,85.087189 287.685425,50.394875 
	C301.183594,44.127998 314.784790,39.378315 328.997681,36.799126 
	C340.753082,34.665878 352.706360,33.645363 364.522186,31.811012 
	C368.858124,31.137878 371.488739,32.425209 373.095459,36.791977 
z"/>
<path fill="#020202" opacity="1.000000" stroke="none" 
	d="
M476.087708,419.066193 
	C471.669647,426.337402 466.239990,432.093964 458.900940,435.790558 
	C457.559723,436.466095 455.594574,436.988251 454.305054,436.518127 
	C435.170502,429.541595 416.562042,421.527771 401.480377,407.251831 
	C394.077118,400.244080 388.446075,392.077423 386.915680,381.751221 
	C386.633270,379.845551 387.251923,377.148315 388.505615,375.777832 
	C397.937622,365.467468 407.611603,355.377502 417.278381,345.284241 
	C418.250397,344.269287 419.604797,343.164185 420.903229,342.985901 
	C444.578064,339.735229 467.371887,333.345001 489.991821,323.431763 
	C490.289398,329.592499 490.825989,335.139618 490.777863,340.681702 
	C490.584015,363.011078 489.885345,385.310516 481.985321,406.599731 
	C480.433594,410.781433 478.194305,414.707977 476.087708,419.066193 
z"/>
<path fill="#030303" opacity="1.000000" stroke="none" 
	d="
M193.636749,219.236938 
	C172.667786,215.311707 151.945587,214.026917 129.875839,215.117325 
	C133.245789,206.774475 136.131927,198.941360 139.537506,191.340988 
	C146.710510,175.332642 155.584534,160.304092 166.823624,146.788254 
	C168.012054,145.359055 170.859528,143.939362 172.406586,144.379761 
	C206.986206,154.223221 238.301865,170.138077 264.743530,194.899994 
	C265.216309,195.342728 265.590393,195.890823 265.636383,195.945450 
	C258.980286,208.577026 252.488983,220.895905 246.258347,232.720062 
	C229.026642,228.294525 211.543686,223.804459 193.636749,219.236938 
z"/>
<path fill="#030303" opacity="1.000000" stroke="none" 
	d="
M257.945404,67.791046 
	C288.763733,96.074364 308.746582,130.677490 321.766327,170.328690 
	C313.979645,173.232330 306.299683,176.174927 298.562866,178.959579 
	C290.478455,181.869339 290.425049,181.828842 284.890686,175.543228 
	C263.505035,151.254608 236.906525,134.175369 208.188217,120.022919 
	C204.637192,118.272972 201.063995,116.568016 197.290497,114.740219 
	C206.300293,101.821220 217.838699,92.057297 230.177826,83.220543 
	C237.469864,77.998299 245.144897,73.300751 252.767136,68.559265 
	C254.092255,67.734947 256.012451,67.867241 257.945404,67.791046 
z"/>
<path fill="#030303" opacity="1.000000" stroke="none" 
	d="
M419.844055,302.216248 
	C415.267792,284.673462 409.405151,268.145050 398.519714,253.824844 
	C397.886566,252.991959 397.169495,251.579926 397.456390,250.786148 
	C402.596069,236.565536 402.539093,221.766190 402.281006,205.328796 
	C411.490692,209.921341 420.196381,213.524048 428.149170,218.363876 
	C454.218262,234.228653 470.448944,257.714661 479.275604,286.593567 
	C479.670288,287.884857 479.457001,290.072418 478.606720,290.927551 
	C465.228210,304.382507 443.832367,315.384094 422.987885,314.954468 
	C421.986786,310.912018 420.959625,306.764404 419.844055,302.216248 
z"/>
<path fill="#040404" opacity="1.000000" stroke="none" 
	d="
M377.521759,349.564148 
	C367.988800,356.562256 357.648834,360.879395 345.915771,363.794525 
	C341.412415,352.136993 336.964844,340.623901 332.576599,329.264374 
	C340.976685,325.200989 348.962341,321.537598 356.741638,317.478638 
	C359.942932,315.808380 362.948975,313.554108 365.598297,311.087006 
	C369.176758,307.754669 368.503479,304.622437 363.724304,303.539032 
	C357.921478,302.223541 351.917480,301.388000 345.977325,301.233032 
	C342.189728,301.134216 339.658325,300.015259 337.686127,297.015839 
	C336.955719,295.905029 336.099854,294.877197 335.358551,293.773010 
	C328.046265,282.881378 330.483063,276.088440 342.965973,272.059357 
	C351.886627,269.180084 360.830719,266.792023 370.356140,267.833588 
	C378.577393,268.732544 384.655701,272.972015 387.468048,280.520966 
	C390.590027,288.901093 393.232300,297.570892 394.960571,306.335999 
	C398.471161,324.140106 391.559753,338.209991 377.521759,349.564148 
z"/>
<path fill="#040404" opacity="1.000000" stroke="none" 
	d="
M338.771729,243.842834 
	C328.065002,233.125412 314.481262,230.738586 300.681396,229.043427 
	C294.644806,228.301895 288.556305,227.982559 281.754578,227.409409 
	C290.246399,217.118118 299.758636,209.046829 310.992737,203.106186 
	C332.629242,191.664673 355.468140,190.645508 378.908020,195.788055 
	C380.072418,196.043518 381.738007,197.221375 381.931244,198.211487 
	C384.493835,211.343918 384.949036,224.304337 377.988708,236.497971 
	C375.873138,240.204117 373.335388,242.255768 368.578857,242.294388 
	C358.776001,242.373993 348.980011,243.295471 338.771729,243.842834 
z"/>
<path fill="#040404" opacity="1.000000" stroke="none" 
	d="
M273.919312,295.049011 
	C270.533386,280.742279 271.258362,266.870270 274.399719,253.087219 
	C274.740173,251.593445 276.603485,249.641373 278.063171,249.332489 
	C292.841248,246.205093 306.193665,249.070496 317.223816,259.858887 
	C318.448730,261.056976 319.377991,263.693512 318.958557,265.266846 
	C312.286041,290.297028 314.491302,315.460876 317.486145,340.648346 
	C318.153198,346.258362 318.991974,351.847931 319.880005,358.392853 
	C298.021027,341.499908 280.774719,322.330414 273.919312,295.049011 
z"/>
</svg>